<!-- Generated by IcoMoon.io -->
<svg version="1.1" xmlns="http://www.w3.org/2000/svg" width="277" height="32" viewBox="0 0 277 32">
<path fill="#ae1332" d="M25.851 2.057h-3.564c-1.1 0-1.991 0.874-1.991 1.951v3.493c0 1.078 0.892 1.951 1.991 1.951h3.564c1.1 0 1.991-0.874 1.991-1.951v-3.493c0-1.078-0.892-1.951-1.991-1.951z"></path>
<path fill="#ae1332" d="M5.983 22.258h-3.838c-1.184 0-2.144 0.874-2.144 1.951v3.493c0 1.078 0.96 1.951 2.144 1.951h3.838c1.184 0 2.144-0.874 2.144-1.951v-3.493c0-1.078-0.96-1.951-2.144-1.951z"></path>
<path fill="#ae1332" d="M5.555 12.073h-3.564c-1.1 0-1.991 0.874-1.991 1.951v3.493c0 1.078 0.892 1.951 1.991 1.951h3.564c1.1 0 1.991-0.874 1.991-1.951v-3.493c0-1.078-0.892-1.951-1.991-1.951z"></path>
<path fill="#ae1332" d="M15.792 22.203h-3.564c-1.1 0-1.991 0.874-1.991 1.951l-0 3.493c0 1.078 0.892 1.951 1.992 1.951h3.564c1.1 0 1.991-0.874 1.991-1.951v-3.493c0-1.078-0.892-1.951-1.991-1.951z"></path>
<path fill="#ae1332" d="M5.555 1.854h-3.564c-1.1 0-1.991 0.874-1.991 1.951v3.493c0 1.078 0.892 1.951 1.991 1.951h3.564c1.1 0 1.991-0.874 1.991-1.951v-3.493c0-1.078-0.892-1.951-1.991-1.951z"></path>
<path fill="#ae1332" d="M16.067 12.176h-3.564c-1.1 0-1.991 0.874-1.991 1.951v3.493c0 1.078 0.892 1.951 1.991 1.951h3.564c1.1 0 1.991-0.874 1.991-1.951v-3.493c0-1.078-0.891-1.951-1.991-1.951z"></path>
<path fill="#ae1332" d="M26.074 22.203h-3.564c-1.1 0-1.991 0.874-1.991 1.951v3.493c0 1.078 0.892 1.951 1.991 1.951h3.564c1.1 0 1.991-0.874 1.991-1.951v-3.493c0-1.078-0.892-1.951-1.991-1.951z"></path>
<path fill="#ae1332" d="M15.636 1.977h-3.564c-1.1 0-1.991 0.874-1.991 1.951v3.493c0 1.078 0.892 1.951 1.991 1.951h3.564c1.1 0 1.991-0.874 1.991-1.952v-3.492c0-1.078-0.892-1.951-1.991-1.951z"></path>
<path fill="#ae1332" d="M25.817 12.379h-3.564c-1.1 0-1.991 0.874-1.991 1.951v3.493c0 1.078 0.892 1.951 1.991 1.951h3.564c1.1 0 1.991-0.874 1.991-1.951v-3.493c0-1.078-0.892-1.951-1.991-1.951z"></path>
<path fill="#ae1332" d="M44.921 24.889v-17.422h11.25v2.564h-8.064v4.878h6.521v2.514h-6.521v7.467h-3.186zM57.634 24.889v-17.422h6.396c1.394 0 2.539 0.241 3.435 0.722 0.913 0.465 1.593 1.103 2.041 1.916 0.448 0.796 0.672 1.684 0.672 2.663 0 1.062-0.282 2.033-0.846 2.912-0.548 0.879-1.41 1.518-2.588 1.916l3.609 7.292h-3.659l-3.236-6.869h-2.638v6.869h-3.186zM60.819 15.68h3.012c1.062 0 1.842-0.257 2.34-0.772s0.747-1.195 0.747-2.041c0-0.83-0.249-1.493-0.747-1.991-0.481-0.498-1.269-0.747-2.364-0.747h-2.987v5.55zM72.145 24.889v-17.422h11.374v2.564h-8.188v4.779h7.442v2.489h-7.442v5.028h8.188v2.564h-11.374zM91.487 25.188c-1.278 0-2.406-0.216-3.385-0.647-0.979-0.448-1.751-1.079-2.315-1.892-0.564-0.83-0.855-1.833-0.871-3.012h3.36c0.033 0.813 0.324 1.502 0.871 2.066 0.564 0.548 1.336 0.821 2.315 0.821 0.846 0 1.518-0.199 2.016-0.597 0.498-0.415 0.747-0.962 0.747-1.643 0-0.713-0.224-1.269-0.672-1.668-0.431-0.398-1.012-0.722-1.742-0.971s-1.51-0.514-2.34-0.796c-1.344-0.465-2.373-1.062-3.086-1.792-0.697-0.73-1.045-1.701-1.045-2.912-0.017-1.029 0.224-1.908 0.722-2.638 0.514-0.747 1.211-1.319 2.091-1.717 0.879-0.415 1.892-0.622 3.036-0.622 1.161 0 2.182 0.207 3.061 0.622 0.896 0.415 1.593 0.996 2.091 1.742 0.514 0.747 0.788 1.634 0.821 2.663h-3.41c-0.017-0.614-0.257-1.153-0.722-1.618-0.448-0.481-1.079-0.722-1.892-0.722-0.697-0.017-1.286 0.158-1.767 0.523-0.465 0.348-0.697 0.863-0.697 1.543 0 0.581 0.183 1.045 0.548 1.394 0.365 0.332 0.863 0.614 1.493 0.846s1.352 0.481 2.165 0.747c0.863 0.299 1.651 0.647 2.364 1.045s1.286 0.929 1.717 1.593c0.431 0.647 0.647 1.485 0.647 2.514 0 0.913-0.232 1.759-0.697 2.539s-1.153 1.41-2.066 1.892c-0.913 0.465-2.033 0.697-3.36 0.697zM99.393 24.889v-17.422h3.186v7.243h7.815v-7.243h3.186v17.422h-3.186v-7.591h-7.815v7.591h-3.186zM120.906 24.889v-17.422h3.186v7.243h7.815v-7.243h3.186v17.422h-3.186v-7.591h-7.815v7.591h-3.186zM136.363 24.889l6.372-17.422h3.584l6.372 17.422h-3.385l-1.394-4.032h-6.795l-1.419 4.032h-3.335zM141.988 18.368h5.052l-2.539-7.243-2.514 7.243zM153.939 24.889v-17.422h6.396c1.394 0 2.539 0.241 3.435 0.722 0.913 0.465 1.593 1.103 2.041 1.916 0.448 0.796 0.672 1.684 0.672 2.663 0 1.062-0.282 2.033-0.846 2.912-0.548 0.879-1.411 1.518-2.588 1.916l3.609 7.292h-3.659l-3.236-6.869h-2.638v6.869h-3.186zM157.125 15.68h3.012c1.062 0 1.842-0.257 2.34-0.772s0.747-1.195 0.747-2.041c0-0.83-0.249-1.493-0.747-1.991-0.481-0.498-1.269-0.747-2.364-0.747h-2.987v5.55zM172.895 24.889l-6.372-17.422h3.41l4.928 14.162 4.954-14.162h3.36l-6.372 17.422h-3.908zM184.251 24.889v-17.422h11.374v2.564h-8.188v4.779h7.442v2.489h-7.442v5.028h8.188v2.564h-11.374zM203.591 25.188c-1.276 0-2.405-0.216-3.385-0.647-0.978-0.448-1.749-1.079-2.315-1.892-0.564-0.83-0.853-1.833-0.871-3.012h3.36c0.034 0.813 0.324 1.502 0.871 2.066 0.565 0.548 1.337 0.821 2.315 0.821 0.846 0 1.518-0.199 2.016-0.597 0.498-0.415 0.747-0.962 0.747-1.643 0-0.713-0.224-1.269-0.672-1.668-0.43-0.398-1.012-0.722-1.742-0.971-0.729-0.249-1.509-0.514-2.34-0.796-1.344-0.465-2.372-1.062-3.086-1.792-0.697-0.73-1.045-1.701-1.045-2.912-0.016-1.029 0.224-1.908 0.722-2.638 0.516-0.747 1.212-1.319 2.091-1.717 0.88-0.415 1.892-0.622 3.036-0.622 1.163 0 2.183 0.207 3.061 0.622 0.896 0.415 1.593 0.996 2.091 1.742 0.516 0.747 0.789 1.634 0.821 2.663h-3.41c-0.016-0.614-0.256-1.153-0.722-1.618-0.448-0.481-1.077-0.722-1.892-0.722-0.697-0.017-1.285 0.158-1.767 0.523-0.464 0.348-0.697 0.863-0.697 1.543 0 0.581 0.183 1.045 0.548 1.394 0.366 0.332 0.864 0.614 1.493 0.846 0.631 0.232 1.353 0.481 2.165 0.747 0.864 0.299 1.652 0.647 2.364 1.045 0.715 0.398 1.287 0.929 1.717 1.593 0.432 0.647 0.647 1.485 0.647 2.514 0 0.913-0.231 1.759-0.697 2.539-0.464 0.78-1.152 1.41-2.066 1.892-0.912 0.465-2.032 0.697-3.36 0.697zM215.337 24.889v-14.859h-5.077v-2.564h13.365v2.564h-5.102v14.859h-3.186zM229.924 24.889v-17.422h6.994c1.81 0 3.186 0.423 4.132 1.269 0.964 0.83 1.444 1.9 1.444 3.211 0 1.095-0.299 1.975-0.896 2.638-0.58 0.647-1.294 1.087-2.14 1.319 0.996 0.199 1.817 0.697 2.464 1.493 0.647 0.78 0.971 1.692 0.971 2.738 0 1.377-0.498 2.514-1.493 3.41s-2.405 1.344-4.231 1.344h-7.243zM233.109 14.784h3.335c0.896 0 1.586-0.207 2.066-0.622 0.482-0.415 0.722-1.004 0.722-1.767 0-0.73-0.24-1.303-0.722-1.717-0.464-0.431-1.17-0.647-2.116-0.647h-3.285v4.754zM233.109 22.3h3.559c0.946 0 1.676-0.216 2.19-0.647 0.532-0.448 0.796-1.070 0.796-1.867 0-0.813-0.274-1.452-0.821-1.916s-1.285-0.697-2.215-0.697h-3.509v5.127zM252.793 25.188c-1.742 0-3.268-0.382-4.58-1.145-1.294-0.763-2.315-1.817-3.061-3.161-0.729-1.361-1.095-2.929-1.095-4.704s0.366-3.335 1.095-4.679c0.747-1.361 1.767-2.423 3.061-3.186 1.312-0.763 2.837-1.145 4.58-1.145 1.726 0 3.244 0.382 4.555 1.145 1.312 0.763 2.332 1.825 3.061 3.186 0.731 1.344 1.095 2.904 1.095 4.679s-0.364 3.343-1.095 4.704c-0.729 1.344-1.749 2.398-3.061 3.161-1.31 0.763-2.828 1.145-4.555 1.145zM252.793 22.325c1.66 0 2.98-0.548 3.957-1.643 0.996-1.095 1.493-2.597 1.493-4.505s-0.498-3.41-1.493-4.505c-0.978-1.095-2.297-1.643-3.957-1.643-1.659 0-2.987 0.548-3.982 1.643s-1.493 2.597-1.493 4.505c0 1.908 0.498 3.41 1.493 4.505s2.324 1.643 3.982 1.643zM261.212 24.889l5.451-8.811-5.525-8.612h3.659l3.908 6.073 3.584-6.073h3.584l-5.451 8.761 5.575 8.661h-3.659l-3.957-6.148-3.584 6.148h-3.584z"></path>
</svg>
